<?xml version="1.0" encoding="UTF-8"?>
<svg id="Layer_2" data-name="Layer 2" xmlns="http://www.w3.org/2000/svg" viewBox="0 0 761.48 195.45">
  <defs>
    <style>
      .cls-1 {
        letter-spacing: -.04em;
      }

      .cls-2 {
        letter-spacing: -.04em;
      }

      .cls-3 {
        letter-spacing: -.06em;
      }

      .cls-4 {
        letter-spacing: -.05em;
      }

      .cls-5 {
        fill: #d58828;
      }

      .cls-6 {
        fill: #202e37;
      }

      .cls-7 {
        fill: #fff7ed;
        font-family: Montserrat-SemiBold, Montserrat;
        font-size: 150px;
        font-variation-settings: 'wght' 600;
        font-weight: 600;
      }

      .cls-8 {
        fill: #e03d26;
      }
    </style>
  </defs>
  <g id="Layer_1-2" data-name="Layer 1">
    <path class="cls-8" d="M1.97,60.72c1.48-.89,6.8-1.3,9.09-1.54,24.64-2.67,49.63-4.96,74.38-7.18,2.25-.2,4.79-.72,7.04-.85,3.7-.22,6.33,1.58,6.67,3.69.68,4.17-.16,9.36-.04,13.68.02.73.53,1.32.54,2.05.15,6.44-.18,12.88,0,19.32-.24,1.43-2.56,2.74-4.85,3.04L7,101.61c-3.63-.2-5.82-1.53-6.18-3.7-.91-5.57.14-12.65.04-18.43-.01-.73-.53-1.32-.54-2.05-.1-4.44-.66-10.29,0-14.57.1-.61.94-1.71,1.65-2.13Z"/>
    <path class="cls-6" d="M1.97,111.85c1.48-.89,6.8-1.3,9.09-1.54,24.64-2.67,49.63-4.96,74.38-7.18,2.25-.2,4.79-.72,7.04-.85,3.7-.22,6.33,1.58,6.67,3.69.68,4.17-.16,9.36-.04,13.68.02.73.53,1.32.54,2.05.15,6.44-.18,12.88,0,19.32-.24,1.43-2.56,2.74-4.85,3.04l-87.8,8.67c-3.63-.2-5.82-1.53-6.18-3.7-.91-5.57.14-12.65.04-18.43-.01-.73-.53-1.32-.54-2.05-.1-4.44-.66-10.29,0-14.57.1-.61.94-1.71,1.65-2.13Z"/>
    <text class="cls-7" transform="translate(125.79 127.5)"><tspan class="cls-2" x="0" y="0">sid</tspan><tspan class="cls-4" x="204.75" y="0">e</tspan><tspan class="cls-3" x="290.25" y="0">w</tspan><tspan class="cls-1" x="418.35" y="0">alk</tspan></text>
    <path class="cls-5" d="M1.97,9.6c1.48-.89,6.8-1.3,9.09-1.54C35.69,5.38,60.68,3.1,85.44.87c2.25-.2,4.79-.72,7.04-.85,3.7-.22,6.33,1.58,6.67,3.69.68,4.17-.16,9.36-.04,13.68.02.73.53,1.32.54,2.05.15,6.44-.18,12.88,0,19.32-.24,1.43-2.56,2.74-4.85,3.04L7,50.48c-3.63-.2-5.82-1.53-6.18-3.7-.91-5.57.14-12.65.04-18.43-.01-.73-.53-1.32-.54-2.05-.1-4.44-.66-10.29,0-14.57.1-.61.94-1.71,1.65-2.13Z"/>
  </g>
</svg>