<?xml version="1.0" encoding="UTF-8"?>
<svg id="Layer_2" data-name="Layer 2" xmlns="http://www.w3.org/2000/svg" viewBox="0 0 518.23 144.03">
  <defs>
    <style>
      .cls-1 {
        fill: #e5bf55;
      }

      .cls-2 {
        fill: #cd5037;
      }

      .cls-3 {
        fill: #212c34;
      }
    </style>
  </defs>
  <g id="Layer_2-2" data-name="Layer 2">
    <g>
      <path class="cls-3" d="M117.24,106.22c-4.41,0-8.71-.51-12.9-1.53-4.19-1.02-7.56-2.3-10.12-3.84l5.37-12.46c2.49,1.47,5.37,2.65,8.63,3.55,3.26.9,6.46,1.34,9.59,1.34s5.19-.33,6.38-1.01c1.18-.67,1.77-1.58,1.77-2.73,0-.96-.54-1.69-1.63-2.21-1.09-.51-2.56-.88-4.41-1.1-1.85-.22-3.85-.48-5.99-.77-2.14-.29-4.33-.73-6.57-1.34-2.24-.61-4.27-1.45-6.09-2.54s-3.28-2.59-4.36-4.51c-1.09-1.92-1.63-4.35-1.63-7.29,0-3.32.97-6.28,2.92-8.87,1.95-2.59,4.79-4.65,8.53-6.18,3.74-1.53,8.36-2.3,13.86-2.3,3.64,0,7.34.38,11.08,1.15,3.74.77,6.89,1.89,9.44,3.36l-5.47,12.46c-2.56-1.53-5.11-2.56-7.67-3.07-2.56-.51-4.95-.77-7.19-.77-3.07,0-5.26.33-6.57,1.01-1.31.67-1.97,1.52-1.97,2.54s.58,1.81,1.73,2.35c1.15.54,2.62.96,4.41,1.25,1.79.29,3.79.58,5.99.86,2.21.29,4.39.72,6.57,1.29,2.17.58,4.15,1.42,5.94,2.54,1.79,1.12,3.24,2.62,4.36,4.51,1.12,1.89,1.68,4.33,1.68,7.34s-.96,5.98-2.88,8.53c-1.92,2.56-4.79,4.6-8.63,6.14s-8.57,2.3-14.19,2.3Z"/>
      <path class="cls-3" d="M155.59,47.63c-3.39,0-6.09-.93-8.1-2.78-2.01-1.85-3.02-4.15-3.02-6.9s1.01-5.03,3.02-6.86c2.01-1.82,4.71-2.73,8.1-2.73s6.01.86,8.05,2.59c2.04,1.73,3.07,3.93,3.07,6.62,0,2.88-1.01,5.27-3.02,7.19s-4.71,2.88-8.1,2.88ZM146.48,105.35v-52.07h18.22v52.07h-18.22Z"/>
      <path class="cls-3" d="M194.81,106.22c-4.67,0-8.95-1.1-12.85-3.31-3.9-2.21-6.98-5.3-9.25-9.3-2.27-3.99-3.4-8.74-3.4-14.24s1.13-10.34,3.4-14.33c2.27-3.99,5.35-7.09,9.25-9.3,3.9-2.21,8.18-3.31,12.85-3.31,4.41,0,8.18.98,11.31,2.92,3.13,1.95,5.5,4.91,7.1,8.87,1.6,3.96,2.4,9.01,2.4,15.15s-.75,11.19-2.25,15.15c-1.5,3.96-3.8,6.9-6.9,8.82-3.1,1.92-6.98,2.88-11.65,2.88ZM198.64,91.74c2.04,0,3.88-.48,5.51-1.44,1.63-.96,2.92-2.38,3.88-4.27.96-1.88,1.44-4.11,1.44-6.66,0-2.75-.48-5.02-1.44-6.81-.96-1.79-2.25-3.16-3.88-4.12-1.63-.96-3.47-1.44-5.51-1.44s-3.98.48-5.61,1.44-2.92,2.33-3.88,4.12c-.96,1.79-1.44,4.06-1.44,6.81,0,2.56.48,4.78,1.44,6.66.96,1.89,2.25,3.31,3.88,4.27s3.5,1.44,5.61,1.44ZM210.05,105.35v-8.92l.1-17.16-.96-17.16v-27.9h18.22v71.15h-17.36Z"/>
      <path class="cls-3" d="M262.12,106.22c-6.2,0-11.59-1.17-16.16-3.5-4.57-2.33-8.12-5.53-10.64-9.59-2.53-4.06-3.79-8.64-3.79-13.76s1.23-9.89,3.69-13.95c2.46-4.06,5.85-7.24,10.16-9.54,4.31-2.3,9.22-3.45,14.72-3.45,5.11,0,9.76,1.07,13.95,3.21,4.19,2.14,7.54,5.21,10.07,9.21,2.52,4,3.79,8.87,3.79,14.62,0,.64-.03,1.38-.1,2.21-.06.83-.13,1.6-.19,2.3h-41.14v-9.59h31.45l-6.9,2.68c.06-2.3-.37-4.33-1.29-6.09-.93-1.76-2.19-3.12-3.79-4.08-1.6-.96-3.48-1.44-5.66-1.44s-4.19.48-5.85,1.44c-1.66.96-2.92,2.32-3.79,4.08-.86,1.76-1.29,3.82-1.29,6.18v2.78c0,2.56.53,4.76,1.58,6.62,1.05,1.86,2.57,3.28,4.55,4.27,1.98.99,4.35,1.49,7.1,1.49s4.83-.37,6.62-1.1c1.79-.73,3.58-1.87,5.37-3.4l9.49,10.07c-2.43,2.69-5.47,4.75-9.11,6.18-3.64,1.44-7.93,2.16-12.85,2.16Z"/>
      <path class="cls-3" d="M303.35,105.35l-18.31-52.07h17.16l14.67,43.63h-8.34l15.44-43.63h15.44l14.77,43.63h-8.15l15.15-43.63h16.01l-18.51,52.07h-17.64l-12.37-35.96h5.27l-12.85,35.96h-17.74Z"/>
      <path class="cls-3" d="M392.81,106.22c-4.09,0-7.59-.7-10.5-2.11-2.91-1.41-5.12-3.32-6.62-5.75-1.5-2.43-2.25-5.11-2.25-8.05,0-3.2.81-5.98,2.44-8.34,1.63-2.36,4.16-4.17,7.58-5.42,3.42-1.25,7.78-1.87,13.09-1.87h12.27v9.59h-9.78c-2.94,0-5,.45-6.18,1.34-1.18.9-1.77,2.17-1.77,3.83,0,1.53.61,2.8,1.82,3.79,1.21.99,2.88,1.49,4.99,1.49s3.88-.49,5.51-1.49c1.63-.99,2.8-2.51,3.5-4.55l2.49,6.71c-.96,3.58-2.83,6.28-5.61,8.1-2.78,1.82-6.44,2.73-10.98,2.73ZM408.15,105.35v-9.68l-1.25-2.4v-17.83c0-2.88-.88-5.1-2.64-6.66-1.76-1.57-4.55-2.35-8.39-2.35-2.49,0-5.03.42-7.62,1.25-2.59.83-4.78,1.89-6.57,3.16l-6.04-12.27c2.94-1.92,6.47-3.42,10.6-4.51,4.12-1.09,8.23-1.63,12.32-1.63,8.44,0,14.97,1.95,19.61,5.85,4.63,3.9,6.95,9.97,6.95,18.22v28.86h-16.97Z"/>
      <path class="cls-3" d="M432.32,105.35V34.21h18.22v71.15h-18.22Z"/>
      <path class="cls-3" d="M458.01,105.35V34.21h18.22v71.15h-18.22ZM473.26,95.77l.38-21.86,21.19-20.62h21.57l-23.49,24.35-9.21,7.48-10.45,10.64ZM496.18,105.35l-15.82-19.94,11.12-14,26.75,33.94h-22.05Z"/>
    </g>
    <g id="Layer_1-2" data-name="Layer 1-2">
      <path class="cls-1" d="M1.26,57.26c.95-.84,4.37-1.23,5.84-1.45,15.84-2.52,31.9-4.68,47.81-6.77,1.45-.19,3.08-.68,4.52-.8,2.38-.21,4.07,1.49,4.29,3.48.44,3.93-.1,8.83-.03,12.9.01.69.34,1.24.35,1.93.1,6.07-.12,12.15,0,18.22-.15,1.35-1.65,2.58-3.12,2.87l-56.43,8.19c-2.33-.19-3.74-1.44-3.97-3.49-.58-5.25.09-11.93.03-17.38,0-.69-.34-1.24-.35-1.93-.06-4.19-.42-9.7,0-13.74.06-.58.6-1.61,1.06-2.01h0Z"/>
      <path class="cls-3" d="M1.26,105.48c.95-.84,4.37-1.23,5.84-1.45,15.84-2.52,31.9-4.68,47.81-6.77,1.45-.19,3.08-.68,4.52-.8,2.38-.21,4.07,1.49,4.29,3.48.44,3.93-.1,8.83-.03,12.9.01.69.34,1.24.35,1.93.1,6.07-.12,12.15,0,18.22-.15,1.35-1.65,2.58-3.12,2.87l-56.43,8.18c-2.33-.19-3.74-1.44-3.97-3.49-.58-5.25.09-11.93.03-17.38,0-.69-.34-1.24-.35-1.93-.06-4.19-.42-9.7,0-13.74.06-.58.6-1.61,1.06-2.01Z"/>
      <path class="cls-2" d="M1.26,9.05c.95-.84,4.37-1.23,5.84-1.45C22.94,5.07,39,2.92,54.91.82c1.45-.19,3.08-.68,4.52-.8,2.38-.21,4.07,1.49,4.29,3.48.44,3.93-.1,8.83-.03,12.9.01.69.34,1.24.35,1.93.1,6.07-.12,12.15,0,18.22-.15,1.35-1.65,2.58-3.12,2.87L4.5,47.6c-2.33-.19-3.74-1.44-3.97-3.49-.58-5.25.09-11.93.03-17.38,0-.69-.34-1.24-.35-1.93-.06-4.19-.42-9.7,0-13.74.06-.58.6-1.61,1.06-2.01Z"/>
    </g>
  </g>
</svg>